<svg xmlns="http://www.w3.org/2000/svg" xmlns:xlink="http://www.w3.org/1999/xlink" width="1080" zoomAndPan="magnify" viewBox="0 0 810 809.999993" height="1080" preserveAspectRatio="xMidYMid meet" version="1.0"><defs><clipPath id="ad331d08ce"><path d="M 171.40625 209.316406 L 622.707031 209.316406 L 622.707031 600 L 171.40625 600 Z M 171.40625 209.316406 " clip-rule="nonzero"/></clipPath><clipPath id="67d3245d94"><path d="M 509.882812 209.316406 L 622.707031 404.644531 L 509.882812 599.972656 L 284.230469 599.972656 L 171.40625 404.644531 L 284.230469 209.316406 Z M 509.882812 209.316406 " clip-rule="nonzero"/></clipPath></defs><g clip-path="url(#ad331d08ce)"><g clip-path="url(#67d3245d94)"><path stroke-linecap="butt" transform="matrix(0.75, 0, 0, 0.75, 171.405391, 209.317349)" fill="none" stroke-linejoin="miter" d="M 451.303252 -0.00125656 L 601.735551 260.436257 L 451.303252 520.87377 L 150.433445 520.87377 L 0.0011455 260.436257 L 150.433445 -0.00125656 Z M 451.303252 -0.00125656 " stroke="#ffffff" stroke-width="114" stroke-opacity="1" stroke-miterlimit="4"/></g></g><path stroke-linecap="butt" transform="matrix(0.375746, -0.649088, 0.649088, 0.375746, 269.80499, 386.586562)" fill="none" stroke-linejoin="miter" d="M -0.00112305 24.499719 L 156.818733 24.501735 " stroke="#ffffff" stroke-width="49" stroke-opacity="1" stroke-miterlimit="4"/><path stroke-linecap="butt" transform="matrix(0.75, 0, 0, 0.75, 338.250044, 502.130203)" fill="none" stroke-linejoin="miter" d="M -0.0000587775 24.498273 L 156.817657 24.498273 " stroke="#ffffff" stroke-width="49" stroke-opacity="1" stroke-miterlimit="4"/><path stroke-linecap="butt" transform="matrix(0.372295, 0.651073, -0.651073, 0.372295, 473.613268, 284.659254)" fill="none" stroke-linejoin="miter" d="M -0.000302715 24.502611 L 156.815146 24.500698 " stroke="#ffffff" stroke-width="49" stroke-opacity="1" stroke-miterlimit="4"/><path stroke-linecap="butt" transform="matrix(0.566946, 0.490992, -0.490992, 0.566946, 101.770918, 287.288355)" fill="none" stroke-linejoin="miter" d="M 0.00171965 33.498898 L 206.447084 33.499529 " stroke="#ffffff" stroke-width="67" stroke-opacity="1" stroke-miterlimit="4"/><path stroke-linecap="butt" transform="matrix(0.605347, 0.442781, -0.442781, 0.605347, 602.151717, 376.008078)" fill="none" stroke-linejoin="miter" d="M -0.00109394 33.00053 L 206.42727 33.000335 " stroke="#ffffff" stroke-width="66" stroke-opacity="1" stroke-miterlimit="4"/><path stroke-linecap="butt" transform="matrix(0.563555, 0.494879, -0.494879, 0.563555, 59.080964, 250.575243)" fill="none" stroke-linejoin="miter" d="M -0.00056817 32.999265 L 55.583389 33.000114 " stroke="#ffffff" stroke-width="66" stroke-opacity="1" stroke-miterlimit="4"/><path stroke-linecap="butt" transform="matrix(0.603586, 0.445179, -0.445179, 0.603586, 738.097166, 475.843676)" fill="none" stroke-linejoin="miter" d="M -0.000250638 32.999706 L 55.58591 33.000238 " stroke="#ffffff" stroke-width="66" stroke-opacity="1" stroke-miterlimit="4"/></svg>